<?xml version="1.0" encoding="utf-8"?>
<!-- Generator: Adobe Illustrator 23.0.1, SVG Export Plug-In . SVG Version: 6.00 Build 0)  -->
<svg version="1.1" id="Camada_1" xmlns="http://www.w3.org/2000/svg" xmlns:xlink="http://www.w3.org/1999/xlink" x="0px" y="0px"
	 viewBox="0 0 97 34" style="enable-background:new 0 0 97 34;" xml:space="preserve">
<style type="text/css">
	.st0{fill:#DF4723;}
</style>
<g>
	<title>Layer 1</title>
	<g id="svg_14">
		<path id="svg_5" class="st0" d="M38.5,1.1c0.2,0.1,0.3,0.3,0.5,0.4c0.3,0.2,0.4,0.5,0.7,0.7c0.3,0.3,0.5,0.6,0.7,1
			c0.4,0.6,0.8,1.3,1,2.1c0.2,0.5,0.2,1.1,0.2,1.6c0,0.5-0.1,1-0.3,1.5c-0.4,0.7-1.1,1.2-1.8,1.4c-0.9,0.2-1.9,0.3-2.8-0.1
			c-0.3-0.2-0.7-0.3-0.9-0.6c-0.6-0.5-0.9-1.3-0.8-2.1c0.2-1.4,1-2.6,1.9-3.6c0.1,0.2,0,0.3,0.1,0.5c0.1,0.3,0.2,0.7,0.4,0.9
			c0.3-0.3,0.6-0.6,0.9-0.9c0.3-0.3,0.4-0.7,0.5-1.2c0-0.5,0.1-1.1-0.1-1.6V1.1C38.5,1.1,38.5,1.1,38.5,1.1z"/>
		<path id="svg_6" class="st0" d="M22.7,9.6V7.8c0-0.4,0.2-0.8,0.5-1.1s0.7-0.5,1.2-0.5c0.4,0,0.8,0.2,1.1,0.5s0.5,0.7,0.5,1.1v1.8
			C25.9,9.6,22.7,9.6,22.7,9.6z M25.8,23.3h-3.2V10.9h3.2V23.3z"/>
		<path id="svg_7" class="st0" d="M34.2,23.3c-0.9,0.1-1.7,0-2.4-0.2s-1.3-0.6-1.7-1c-0.5-0.5-0.8-1-1.1-1.7
			c-0.3-0.7-0.3-1.5-0.3-2.3V7.7h3.2v3.2h2.2v2.8h-2.2v4.4c0,0.9,0.2,1.5,0.6,1.8c0.4,0.3,1,0.5,1.8,0.5L34.2,23.3
			C34.3,23.3,34.2,23.3,34.2,23.3z"/>
		<path id="svg_8" class="st0" d="M36.6,9.6V7.8c0-0.4,0.2-0.8,0.5-1.1s0.7-0.5,1.2-0.5c0.4,0,0.8,0.2,1.1,0.5s0.5,0.7,0.5,1.1v1.8
			C39.8,9.6,36.6,9.6,36.6,9.6z M39.8,23.3h-3.2V10.9h3.2V23.3z"/>
		<path id="svg_9" class="st0" d="M42.6,16.1c0-0.8,0.1-1.5,0.4-2.2c0.3-0.7,0.6-1.2,1.1-1.8s1.1-0.9,1.8-1.2
			c0.7-0.3,1.5-0.4,2.3-0.4c0.9,0,1.6,0.1,2.3,0.4c0.7,0.3,1.2,0.6,1.7,1.2c0.5,0.5,0.8,1.1,1.1,1.8c0.3,0.7,0.4,1.4,0.4,2.2v7.2
			h-3.2v-7.2c0-0.2,0-0.4-0.1-0.6c0-0.3-0.2-0.5-0.3-0.8c-0.2-0.3-0.4-0.5-0.7-0.6s-0.7-0.3-1.2-0.3c-0.7,0-1.3,0.2-1.7,0.6
			c-0.5,0.4-0.7,1-0.7,1.7v7.2h-3.2C42.6,23.4,42.6,16.1,42.6,16.1z"/>
		<path id="svg_10" class="st0" d="M68.6,17.1c0,0.9-0.2,1.8-0.5,2.5s-0.8,1.5-1.3,2.1s-1.2,1-2,1.4c-0.8,0.3-1.6,0.5-2.6,0.5
			c-0.9,0-1.8-0.2-2.6-0.5c-0.8-0.3-1.5-0.8-2-1.4c-0.6-0.6-1-1.3-1.3-2.1c-0.3-0.8-0.5-1.6-0.5-2.5s0.2-1.7,0.5-2.5
			c0.3-0.8,0.7-1.5,1.3-2.1c0.6-0.6,1.2-1.1,1.9-1.4s1.5-0.5,2.3-0.5c1.5,0,2.7,0.5,3.6,1.5V5.4h3.2C68.6,5.4,68.6,17.1,68.6,17.1z
			 M65.4,17.2c0-0.5-0.1-1-0.3-1.4c-0.2-0.4-0.4-0.8-0.7-1.1c-0.3-0.3-0.6-0.6-1-0.8c-0.4-0.2-0.8-0.3-1.2-0.3
			c-0.4,0-0.9,0.1-1.2,0.3s-0.7,0.4-1,0.7c-0.3,0.3-0.5,0.7-0.7,1.1S59,16.6,59,17.1s0.1,0.9,0.3,1.4s0.4,0.8,0.7,1.1s0.6,0.6,1,0.7
			s0.8,0.3,1.2,0.3c0.4,0,0.9-0.1,1.2-0.3s0.7-0.4,1-0.7s0.5-0.7,0.7-1.1C65.3,18.1,65.4,17.6,65.4,17.2z"/>
		<path id="svg_11" class="st0" d="M82.8,19.4c-0.4,1.3-1.1,2.3-2.1,3.1s-2.3,1.2-3.9,1.2c-0.9,0-1.7-0.2-2.5-0.5s-1.5-0.8-2-1.4
			c-0.6-0.6-1-1.3-1.4-2.1s-0.5-1.6-0.5-2.5s0.2-1.8,0.5-2.5c0.3-0.8,0.8-1.5,1.4-2.1c0.6-0.6,1.2-1.1,2-1.4s1.6-0.5,2.5-0.5
			c0.7,0,1.5,0.1,2.1,0.3c0.7,0.2,1.3,0.6,1.8,1c0.6,0.4,1,1,1.4,1.6s0.6,1.4,0.8,2.2L74,19.6c0.3,0.4,0.7,0.7,1.2,1
			c0.4,0.2,0.9,0.3,1.5,0.3c0.5,0,1-0.1,1.5-0.3s0.9-0.6,1.1-1.1L82.8,19.4C82.8,19.4,82.8,19.4,82.8,19.4z M79.2,14.5
			c-0.3-0.3-0.6-0.6-1.1-0.8c-0.4-0.2-0.9-0.3-1.4-0.3c-0.5,0-0.9,0.1-1.3,0.3c-0.4,0.2-0.8,0.4-1,0.7c-0.3,0.3-0.6,0.7-0.7,1.1
			s-0.3,0.9-0.3,1.5L79.2,14.5z"/>
		<path id="svg_12" class="st0" d="M91.5,13.6c-1-0.2-1.8,0-2.4,0.4s-0.9,1.2-0.9,2.1v7.2H85v-7.2c0-0.9,0.1-1.7,0.4-2.4
			c0.3-0.7,0.7-1.3,1.3-1.8s1.2-0.9,2.1-1.1c0.8-0.2,1.7-0.3,2.7-0.1L91.5,13.6C91.5,13.6,91.5,13.6,91.5,13.6z"/>
		<path id="svg_13" class="st0" d="M18.9,13.7c0.5,0.7,1.1,1.6,1.1,3c0,3.3-2.6,5.2-6.3,5.2c-0.9,0-1.8-0.1-2.3-0.3l-1,1.5l2.9,0.2
			c5.1,0.3,8.1,0.5,8.1,4.4c0,3.4-3,5.3-8.1,5.3C8,33.1,6,31.7,6,29.4c0-1.3,0.6-2,1.6-3c-1-0.4-1.3-1.2-1.3-1.9
			c0-0.6,0.3-1.2,0.9-1.8c0.5-0.6,1.1-1.1,1.8-1.8c-1.5-0.7-2.5-2.2-2.5-4.4c0-3.4,2.2-5.7,6.8-5.7c1.3,0,2,0.1,2.7,0.3h5.7v2.5
			C21.6,13.5,18.9,13.7,18.9,13.7z M10.2,27.1c-0.4,0.5-0.8,1-0.8,1.5c0,1.2,1.5,1.5,3.6,1.5c1.7,0,4-0.1,4-1.7c0-0.9-1.1-1-2.5-1.1
			L10.2,27.1z M13.5,13.6c-1.6,0-2.8,0.8-2.8,2.7c0,1.5,0.8,2.4,2.7,2.4c1.6,0,2.8-1,2.8-2.5C16.1,14.5,15.1,13.6,13.5,13.6z"/>
	</g>
</g>
</svg>
